<svg id="Layer_1" enable-background="new 0 0 512.001 512.001" height="512" viewBox="0 0 512.001 512.001" width="512" xmlns="http://www.w3.org/2000/svg"><g><g><path d="m390.286 406.472-63.145-63.144c-6.475-6.476-18.118-10.068-28.309-8.721-9.605 1.264-17.594 6.634-22.493 15.12-14.76 25.563-28.753 39.46-42.78 42.483-11.161 2.406-23.707-1.75-39.483-13.075-4.487-3.222-10.734-2.195-13.955 2.291-3.222 4.486-2.195 10.734 2.291 13.955 20.692 14.856 38.282 20.062 55.361 16.38 14.417-3.107 27.615-12.467 40.551-28.966l77.49 77.489c-.908.609-1.834 1.216-2.788 1.823-47.76 30.356-144.583 64.654-256.419-46.682-111.366-111.864-77.069-208.69-46.714-256.45.606-.954 1.214-1.88 1.823-2.788l77.49 77.489c-16.499 12.936-25.859 26.133-28.966 40.55-3.681 17.075 1.523 34.665 16.376 55.356 3.222 4.485 9.469 5.512 13.956 2.292 4.486-3.222 5.513-9.469 2.291-13.956-11.324-15.774-15.478-28.319-13.072-39.479 3.023-14.027 16.92-28.021 42.483-42.78 8.486-4.899 13.856-12.888 15.12-22.493 1.342-10.192-2.244-21.834-8.72-28.308l-63.141-63.144c-1.693-1.747-11.461-11.015-27.017-9.566-15.907 1.476-31.217 13.62-45.503 36.097-15.997 25.173-34.691 65.707-32.893 115.87 2.041 56.952 29.734 112.607 82.344 165.453 52.814 52.578 108.47 80.272 165.422 82.313 2.26.081 4.494.12 6.714.12 47.063-.001 85.117-17.736 109.154-33.015 22.477-14.285 34.621-29.595 36.097-45.502 1.441-15.538-7.809-25.31-9.565-27.012zm-310.215-274.377c6.29-.711 10.467 2.946 11.065 3.51.081.093.039.038.183.183l63.214 63.215c1.444 1.444 3.692 6.541 3.032 11.557-.459 3.49-2.141 5.963-5.291 7.782-2.186 1.262-4.292 2.523-6.335 3.784l-81.433-81.432c5.449-5.088 10.737-8.057 15.565-8.599zm213.589 227.633c1.819-3.15 4.292-4.832 7.782-5.291 5.021-.663 10.112 1.589 11.558 3.033l63.213 63.213c.145.144.09.102.184.184.564.601 4.218 4.761 3.51 11.064-.543 4.828-3.511 10.115-8.598 15.564l-81.432-81.432c1.26-2.043 2.521-4.149 3.783-6.335z"/><path d="m362.001 0c-82.71 0-150 67.29-150 150 0 27.395 7.405 54.038 21.456 77.343l-9.039 33.735c-3.105 11.506 3.727 23.396 15.231 26.505 3.751 1.012 7.703.998 11.437-.044l33.573-8.996c23.307 14.051 49.951 21.457 77.342 21.457 82.71 0 150-67.29 150-150s-67.29-150-150-150zm0 280c-25.047 0-49.363-7.139-70.32-20.645-1.631-1.051-3.514-1.595-5.417-1.595-.866 0-1.736.112-2.588.341l-37.822 10.134c-.046.012-.092.024-.137.037-.282.081-.56.08-.85.003-.861-.233-1.373-1.123-1.136-2.003l10.168-37.946c.73-2.726.275-5.634-1.254-8.006-13.506-20.954-20.645-45.271-20.645-70.32 0-71.683 58.317-130 130-130s130 58.317 130 130-58.316 130-129.999 130z"/><path d="m362.001 60c-49.626 0-90 40.374-90 90s40.374 90 90 90 90-40.374 90-90-40.374-90-90-90zm0 160c-38.598 0-70-31.402-70-70s31.402-70 70-70 70 31.402 70 70-31.402 70-70 70z"/><path d="m383.214 166.215c-5.666 5.666-13.2 8.787-21.213 8.787-8.014 0-15.547-3.12-21.213-8.786-3.902-3.904-10.235-3.905-14.142-.001s-3.906 10.236-.001 14.142c9.442 9.444 21.999 14.646 35.355 14.646 13.355 0 25.911-5.201 35.355-14.645 3.905-3.905 3.905-10.237 0-14.143-3.905-3.904-10.235-3.904-14.141 0z"/><path d="m332 145.002c5.522 0 10-4.481 10-10.004s-4.478-10-10-10-10 4.478-10 10v.008c0 5.522 4.478 9.996 10 9.996z"/><path d="m392.002 124.998c-5.522 0-10 4.478-10 10v.008c0 5.522 4.478 9.996 10 9.996s10-4.481 10-10.004-4.477-10-10-10z"/><path d="m154.459 347.542h-.008c-5.522 0-9.996 4.478-9.996 10s4.481 10 10.004 10 10-4.478 10-10-4.477-10-10-10z"/></g></g></svg>